# xmcd
#
# Track frame offsets: 
#        150
#        9467
#        20768
#        29150
#        39886
#        48815
#        57210
#        67631
#        78632
#        86483
#        96577
#        105145
#        115478
#        124018
#        132040
#        141828
#        151747
#        163050
#        172751
#        181580
#        190907
#        198576
#        210080
#        222376
#        230622
#        238911
#        248297
#        260084
#        269587
#        278044
#        288153
#
# Disc length: 3977 seconds
#
# Revision: 0
# Processed by: cddbd v1.5.2PL0 Copyright (c) Steve Scherf et al.
# Submitted via: ExactAudioCopy v1.0b1
#
DISCID=a70f871f
DTITLE=Johnny Cash - 8 classic albums - CD 3
DYEAR=2011
DGENRE=Country
TTITLE0=It was Jesus
TTITLE1=I saw a man
TTITLE2=Are all the children in
TTITLE3=The old account
TTITLE4=Lead me gently home
TTITLE5=Swing low, sweet chariot
TTITLE6=Snow in his hair
TTITLE7=Lead me father
TTITLE8=I call him
TTITLE9=These things shall pass
TTITLE10=He'll be a friend
TTITLE11=God will
TTITLE12=Drink to me
TTITLE13=Five feet high and rising
TTITLE14=The man on the hill
TTITLE15=Hank and Joe and me
TTITLE16=Clementine
TTITLE17=The great speckled bird
TTITLE18=I want to go home
TTITLE19=The caretaker
TTITLE20=Old Apache squaw
TTITLE21=Don't step on mothers roses
TTITLE22=My grandfather's clock
TTITLE23=It could be you (Instead of him)
TTITLE24=You dreamer you
TTITLE25=I got stripes
TTITLE26=The little drummer boy
TTITLE27=Smiling Bill McCall
TTITLE28=I'll remember you
TTITLE29=Bandana
TTITLE30=Wabash blues
EXTD=
EXTT0=
EXTT1=
EXTT2=
EXTT3=
EXTT4=
EXTT5=
EXTT6=
EXTT7=
EXTT8=
EXTT9=
EXTT10=
EXTT11=
EXTT12=
EXTT13=
EXTT14=
EXTT15=
EXTT16=
EXTT17=
EXTT18=
EXTT19=
EXTT20=
EXTT21=
EXTT22=
EXTT23=
EXTT24=
EXTT25=
EXTT26=
EXTT27=
EXTT28=
EXTT29=
EXTT30=
PLAYORDER=
